<svg xmlns="http://www.w3.org/2000/svg" style="display: none;">
    <symbol id="card" viewBox="0 0 64 64">
        <title>card</title>
        <path d="m17 62h30c3.309 0 6-2.691 6-6v-48c0-3.309-2.691-6-6-6h-30c-3.309 0-6 2.691-6 6v48c0 3.309 2.691 6 6 6zm-4-54c0-2.206 1.794-4 4-4h30c2.206 0 4 1.794 4 4v48c0 2.206-1.794 4-4 4h-30c-2.206 0-4-1.794-4-4z"/><path d="m19 58h26c2.206 0 4-1.794 4-4v-44c0-2.206-1.794-4-4-4h-26c-2.206 0-4 1.794-4 4v44c0 2.206 1.794 4 4 4zm-2-48c0-1.103.897-2 2-2h26c1.103 0 2 .897 2 2v44c0 1.103-.897 2-2 2h-26c-1.103 0-2-.897-2-2z"/><path d="m24.387 27h1.226c1.316 0 2.387-1.071 2.387-2.387 0-1.992 1.621-3.613 3.613-3.613h.887.001c.935 0 1.813.365 2.473 1.026.662.664 1.026 1.551 1.026 2.496 0 1.918-1.561 3.478-3.5 3.478h-.001c-1.201 0-2.331.468-3.18 1.317s-1.319 1.98-1.319 3.182v7.501c0 1.654 1.346 3 3 3s3-1.346 3-3v-6c4.411 0 8-3.589 8-8v-3c0-4.411-3.589-8-8-8h-4c-4.411 0-8 3.589-8 8v1.613c0 1.316 1.071 2.387 2.387 2.387zm-.387-4c0-3.309 2.691-6 6-6h4c3.309 0 6 2.691 6 6v3c0 3.309-2.691 6-6 6-1.103 0-2 .897-2 2v6c0 .551-.449 1-1 1s-1-.449-1-1v-7.501c0-.667.26-1.295.732-1.767s1.099-.732 1.789-.732c3.021 0 5.479-2.457 5.479-5.478 0-1.478-.572-2.866-1.609-3.907s-2.419-1.615-3.89-1.615c0 0 0 0-.001 0h-.888c-3.094 0-5.612 2.518-5.612 5.613 0 .213-.174.387-.387.387h-1.226c-.213 0-.387-.174-.387-.387z"/><path d="m32 45h-2c-1.103 0-2 .897-2 2v2c0 1.103.897 2 2 2h2c1.103 0 2-.897 2-2v-2c0-1.103-.897-2-2-2zm-2 4v-2h2l.001 2z"/>
    </symbol>
    <!-- <symbol id="card-backwards" viewBox="0 0 512 512">
        <title>card-backwards</title>
        <path d="M376,0H136c-22.056,0-40,17.944-40,40v432c0,22.056,17.944,40,40,40h240c22.056,0,40-17.944,40-40V40 C416,17.944,398.056,0,376,0z M400,472c0,13.234-10.766,24-24,24H136c-13.234,0-24-10.766-24-24V40c0-13.233,10.766-24,24-24h240 c13.234,0,24,10.767,24,24V472z"/><path d="M376,87.998V48c0-4.418-3.582-8-8-8h-39.997c-0.002,0-0.003,0-0.005,0h-39.995c-0.002,0-0.003,0-0.005,0h-39.995 c-0.002,0-0.003,0-0.005,0H144c-4.418,0-8,3.582-8,8v15.998c0,0.001,0,0.003,0,0.005v39.995c0,0.001,0,0.003,0,0.005v39.995 c0,0.001,0,0.003,0,0.005v39.995c0,0.001,0,0.003,0,0.005v39.995c0,0.001,0,0.003,0,0.005v39.995c0,0.001,0,0.003,0,0.005v39.995 c0,0.001,0,0.003,0,0.005v39.995c0,0.001,0,0.003,0,0.005v39.995c0,0.001,0,0.003,0,0.005v39.995c0,0.001,0,0.003,0,0.005V464 c0,4.418,3.582,8,8,8h224c4.418,0,8-3.582,8-8v-15.998c0-0.001,0-0.003,0-0.005v-39.995c0-0.001,0-0.003,0-0.005v-39.995 c0-0.001,0-0.003,0-0.005v-39.995c0-0.001,0-0.003,0-0.005v-39.995c0-0.001,0-0.003,0-0.005v-39.995c0-0.001,0-0.003,0-0.005 v-39.995c0-0.001,0-0.003,0-0.005v-39.995c0-0.001,0-0.003,0-0.005v-39.995c0-0.001,0-0.003,0-0.005V88.002 C376,88.001,376,87.999,376,87.998z M307.314,456L152,300.687v-17.373L324.686,456H307.314z M267.313,456L152,340.687v-17.373 L284.686,456H267.313z M227.313,456L152,380.687v-17.373L244.687,456H227.313z M187.313,456L152,420.687v-17.373L204.687,456 H187.313z M152,203.313l208,208v17.373l-208-208V203.313z M152,180.687v-17.373l208,208v17.373L152,180.687z M152,140.687v-17.373 l208,208v17.373L152,140.687z M152,100.687V83.313l208,208v17.373L152,100.687z M204.686,56L360,211.313v17.373L187.314,56H204.686 z M227.314,56h17.373L360,171.313v17.373L227.314,56z M267.313,56h17.373L360,131.313v17.373L267.313,56z M307.313,56h17.373 L360,91.313v17.373L307.313,56z M360,68.687L347.313,56H360V68.687z M164.686,56L360,251.313v17.373l-208-208V56H164.686z M152,443.313L164.687,456H152V443.313z M347.314,456L152,260.687v-17.373l208,208V456H347.314z"/>
    </symbol>
    <symbol id="poker" viewBox="0 0 512 512">
        <title>poker</title>
        <path style="fill:#D7DEED;" d="M380.854,504H131.146C116.706,504,105,492.294,105,477.854V34.146C105,19.706,116.706,8,131.146,8 h249.707C395.294,8,407,19.706,407,34.146v443.707C407,492.294,395.294,504,380.854,504z"/><g> <path style="fill:#2D2B29;" d="M376,0H136c-22.056,0-40,17.944-40,40v432c0,22.056,17.944,40,40,40h240c22.056,0,40-17.944,40-40 V40C416,17.944,398.056,0,376,0z M400,472c0,13.233-10.766,24-24,24H136c-13.234,0-24-10.767-24-24V40c0-13.233,10.766-24,24-24 h240c13.234,0,24,10.767,24,24V472z"/> <path style="fill:#2D2B29;" d="M376,87.998V48c0-4.418-3.582-8-8-8h-39.998c-0.001,0-0.003,0-0.005,0h-39.995 c-0.001,0-0.003,0-0.005,0h-39.995c-0.001,0-0.003,0-0.005,0H144c-4.418,0-8,3.582-8,8v15.998c0,0.001,0,0.003,0,0.005v39.995 c0,0.001,0,0.003,0,0.005v39.995c0,0.001,0,0.003,0,0.005v39.995c0,0.001,0,0.003,0,0.005v39.995c0,0.001,0,0.003,0,0.005v39.995 c0,0.001,0,0.003,0,0.005v39.995c0,0.001,0,0.003,0,0.005v39.995c0,0.001,0,0.003,0,0.005v39.995c0,0.001,0,0.003,0,0.005v39.995 c0,0.001,0,0.003,0,0.005V464c0,4.418,3.582,8,8,8h224c4.418,0,8-3.582,8-8v-15.998c0-0.001,0-0.003,0-0.005v-39.995 c0-0.001,0-0.003,0-0.005v-39.995c0-0.001,0-0.003,0-0.005v-39.995c0-0.001,0-0.003,0-0.005v-39.995c0-0.001,0-0.003,0-0.005 v-39.995c0-0.001,0-0.003,0-0.005v-39.995c0-0.001,0-0.003,0-0.005v-39.995c0-0.001,0-0.003,0-0.005v-39.995 c0-0.001,0-0.003,0-0.005V88.002C376,88.001,376,87.999,376,87.998z M307.313,456L152,300.687v-17.373L324.687,456H307.313z M267.313,456L152,340.687v-17.373L284.687,456H267.313z M227.313,456L152,380.687v-17.373L244.687,456H227.313z M187.313,456 L152,420.687v-17.373L204.687,456H187.313z M152,203.313l208,208v17.373l-208-208V203.313z M152,180.687v-17.373l208,208v17.373 L152,180.687z M152,140.687v-17.373l208,208v17.373L152,140.687z M152,100.687V83.313l208,208v17.373L152,100.687z M204.687,56 L360,211.313v17.373L187.313,56H204.687z M227.313,56h17.373L360,171.313v17.373L227.313,56z M267.313,56h17.373L360,131.313 v17.373L267.313,56z M307.313,56h17.373L360,91.313v17.373L307.313,56z M360,68.687L347.313,56H360V68.687z M164.687,56 L360,251.313v17.373l-208-208V56H164.687z M152,443.313L164.687,456H152V443.313z M347.313,456L152,260.687v-17.373l208,208V456 H347.313z"/> </g>
    </symbol>
    <symbol id="card2" viewBox="0 0 512 512">
        <title>card2</title>
        <path style="fill:#E6E6E6;" d="M391.428,8.404H120.573c-17.327,0-31.374,14.046-31.374,31.374v432.443 c0,17.327,14.046,31.374,31.374,31.374h270.855c17.327,0,31.374-14.046,31.374-31.374V39.778 C422.801,22.451,408.755,8.404,391.428,8.404z"/><path style="fill:#515262;" d="M367.311,42.021H144.69c-12.081,0-21.875,9.793-21.875,21.875v384.21 c0,12.081,9.794,21.875,21.875,21.875h222.621c12.081,0,21.875-9.793,21.875-21.875V63.895 C389.185,51.814,379.392,42.021,367.311,42.021z"/><polygon style="fill:#E6E6E6;" points="256.001,115.391 162.926,256 256.001,396.61 349.075,256 "/><path style="opacity:0.1;enable-background:new ;" d="M156.434,472.222V39.778c0-17.327,14.046-31.374,31.374-31.374h-67.234 c-17.327,0-31.374,14.046-31.374,31.374v432.443c0,17.327,14.046,31.374,31.374,31.374h67.234 C170.48,503.596,156.434,489.549,156.434,472.222z"/><path d="M391.428,512H337.04c-4.641,0-8.404-3.762-8.404-8.404c0-4.642,3.763-8.404,8.404-8.404h54.388 c12.666,0,22.969-10.305,22.969-22.97V39.778c0-12.666-10.304-22.969-22.969-22.969H120.572c-12.665,0-22.969,10.304-22.969,22.969 v432.443c0,12.666,10.304,22.97,22.969,22.97h184.623c4.641,0,8.404,3.762,8.404,8.404c0,4.643-3.763,8.404-8.404,8.404H120.572 c-21.933,0-39.778-17.845-39.778-39.779V39.778C80.796,17.845,98.64,0,120.572,0h270.855c21.934,0,39.778,17.845,39.778,39.778 v432.443C431.206,494.155,413.362,512,391.428,512z"/><path d="M367.311,478.383H144.69c-16.695,0-30.279-13.582-30.279-30.279V63.896c0-16.695,13.584-30.279,30.279-30.279h39.225 c4.641,0,8.404,3.762,8.404,8.404s-3.763,8.404-8.404,8.404H144.69c-7.427,0-13.47,6.043-13.47,13.47v384.21 c0,7.427,6.043,13.47,13.47,13.47h222.621c7.427,0,13.47-6.043,13.47-13.47V63.896c0-7.427-6.043-13.47-13.47-13.47H216.242 c-4.641,0-8.404-3.762-8.404-8.404s3.763-8.404,8.404-8.404h151.069c16.695,0,30.279,13.582,30.279,30.279v384.21 C397.589,464.801,384.006,478.383,367.311,478.383z"/><path d="M256.001,405.014c-2.82,0-5.452-1.414-7.008-3.765L155.918,260.64c-1.862-2.813-1.862-6.466,0-9.277l93.074-140.609 c1.556-2.352,4.188-3.765,7.008-3.765c2.819,0,5.452,1.414,7.008,3.765l41.707,63.008c2.563,3.87,1.502,9.084-2.369,11.647 c-3.87,2.563-9.084,1.5-11.647-2.369l-34.699-52.421L173.005,256l82.995,125.383L338.994,256l-28.465-43.003 c-2.753-3.021-2.959-7.683-0.303-10.952c0.053-0.065,0.126-0.151,0.189-0.225c1.686-1.982,4.195-3.079,6.809-2.946 c2.671,0.13,5.122,1.525,6.598,3.756l32.258,48.732c1.862,2.813,1.862,6.466,0,9.277l-93.074,140.609 C261.452,403.6,258.82,405.014,256.001,405.014z"/>
    </symbol> -->
    <symbol id="refresh" viewBox="0 0 489.935 489.935">
        <title>refresh</title><path d="M278.235,33.267c-116.7,0-211.6,95-211.6,211.7v0.7l-41.9-63.1c-4.1-6.2-12.5-7.9-18.7-3.8c-6.2,4.1-7.9,12.5-3.8,18.7 l60.8,91.5c2.2,3.3,5.7,5.4,9.6,5.9c0.6,0.1,1.1,0.1,1.7,0.1c3.3,0,6.5-1.2,9-3.5l84.5-76.1c5.5-5,6-13.5,1-19.1 c-5-5.5-13.5-6-19.1-1l-56.1,50.7v-1c0-101.9,82.8-184.7,184.6-184.7s184.7,82.8,184.7,184.7s-82.8,184.7-184.6,184.7 c-49.3,0-95.7-19.2-130.5-54.1c-5.3-5.3-13.8-5.3-19.1,0c-5.3,5.3-5.3,13.8,0,19.1c40,40,93.1,62,149.6,62 c116.6,0,211.6-94.9,211.6-211.7S394.935,33.267,278.235,33.267z"/>
    </symbol>
    <symbol id="back-arrow" viewBox="0 0 459 459">
        <title>back-arrow</title><path d="M178.5,140.25v-102L0,216.75l178.5,178.5V290.7c127.5,0,216.75,40.8,280.5,130.05C433.5,293.25,357,165.75,178.5,140.25z"/>
    </symbol>
</svg>