<svg xmlns="http://www.w3.org/2000/svg" style="display: none;">
    <symbol id="card" viewBox="0 0 64 64">
        <title>card</title>
        <path d="m17 62h30c3.309 0 6-2.691 6-6v-48c0-3.309-2.691-6-6-6h-30c-3.309 0-6 2.691-6 6v48c0 3.309 2.691 6 6 6zm-4-54c0-2.206 1.794-4 4-4h30c2.206 0 4 1.794 4 4v48c0 2.206-1.794 4-4 4h-30c-2.206 0-4-1.794-4-4z"/><path d="m19 58h26c2.206 0 4-1.794 4-4v-44c0-2.206-1.794-4-4-4h-26c-2.206 0-4 1.794-4 4v44c0 2.206 1.794 4 4 4zm-2-48c0-1.103.897-2 2-2h26c1.103 0 2 .897 2 2v44c0 1.103-.897 2-2 2h-26c-1.103 0-2-.897-2-2z"/><path d="m24.387 27h1.226c1.316 0 2.387-1.071 2.387-2.387 0-1.992 1.621-3.613 3.613-3.613h.887.001c.935 0 1.813.365 2.473 1.026.662.664 1.026 1.551 1.026 2.496 0 1.918-1.561 3.478-3.5 3.478h-.001c-1.201 0-2.331.468-3.18 1.317s-1.319 1.98-1.319 3.182v7.501c0 1.654 1.346 3 3 3s3-1.346 3-3v-6c4.411 0 8-3.589 8-8v-3c0-4.411-3.589-8-8-8h-4c-4.411 0-8 3.589-8 8v1.613c0 1.316 1.071 2.387 2.387 2.387zm-.387-4c0-3.309 2.691-6 6-6h4c3.309 0 6 2.691 6 6v3c0 3.309-2.691 6-6 6-1.103 0-2 .897-2 2v6c0 .551-.449 1-1 1s-1-.449-1-1v-7.501c0-.667.26-1.295.732-1.767s1.099-.732 1.789-.732c3.021 0 5.479-2.457 5.479-5.478 0-1.478-.572-2.866-1.609-3.907s-2.419-1.615-3.89-1.615c0 0 0 0-.001 0h-.888c-3.094 0-5.612 2.518-5.612 5.613 0 .213-.174.387-.387.387h-1.226c-.213 0-.387-.174-.387-.387z"/><path d="m32 45h-2c-1.103 0-2 .897-2 2v2c0 1.103.897 2 2 2h2c1.103 0 2-.897 2-2v-2c0-1.103-.897-2-2-2zm-2 4v-2h2l.001 2z"/>
    </symbol>
    <symbol id="tic-tac-toe" viewBox="0 0 64 64">
        <title>tic-tac-toe</title><path d="M54,6H10a4,4,0,0,0-4,4V54a4,4,0,0,0,4,4H54a4,4,0,0,0,4-4V10A4,4,0,0,0,54,6ZM23,56H10a2,2,0,0,1-2-2V42H23Zm0-16H8V24H23Zm0-18H8V10a2,2,0,0,1,2-2H23ZM39,56H25V42H39Zm0-16H25V24H39Zm0-18H25V8H39ZM56,54a2,2,0,0,1-2,2H41V42H56Zm0-14H41V24H56Zm0-18H41V8H54a2,2,0,0,1,2,2Z"/><path d="M55,2H9A7.008,7.008,0,0,0,2,9V55a7.008,7.008,0,0,0,7,7H55a7.008,7.008,0,0,0,7-7V9A7.008,7.008,0,0,0,55,2Zm5,53a5.006,5.006,0,0,1-5,5H9a5.006,5.006,0,0,1-5-5V9A5.006,5.006,0,0,1,9,4H55a5.006,5.006,0,0,1,5,5Z"/><path d="M32,37a5,5,0,1,0-5-5A5.006,5.006,0,0,0,32,37Zm0-8a3,3,0,1,1-3,3A3,3,0,0,1,32,29Z"/><path d="M48,10a5,5,0,1,0,5,5A5.006,5.006,0,0,0,48,10Zm0,8a3,3,0,1,1,3-3A3,3,0,0,1,48,18Z"/><path d="M16,37a5,5,0,1,0-5-5A5.006,5.006,0,0,0,16,37Zm0-8a3,3,0,1,1-3,3A3,3,0,0,1,16,29Z"/><path d="M11.293,19.707a1,1,0,0,0,1.414,0L16,16.414l3.293,3.293a1,1,0,0,0,1.414-1.414L17.414,15l3.293-3.293a1,1,0,0,0-1.414-1.414L16,13.586l-3.293-3.293a1,1,0,0,0-1.414,1.414L14.586,15l-3.293,3.293A1,1,0,0,0,11.293,19.707Z"/><path d="M27.293,19.707a1,1,0,0,0,1.414,0L32,16.414l3.293,3.293a1,1,0,0,0,1.414-1.414L33.414,15l3.293-3.293a1,1,0,0,0-1.414-1.414L32,13.586l-3.293-3.293a1,1,0,0,0-1.414,1.414L30.586,15l-3.293,3.293A1,1,0,0,0,27.293,19.707Z"/><path d="M43.293,36.707a1,1,0,0,0,1.414,0L48,33.414l3.293,3.293a1,1,0,0,0,1.414-1.414L49.414,32l3.293-3.293a1,1,0,0,0-1.414-1.414L48,30.586l-3.293-3.293a1,1,0,0,0-1.414,1.414L46.586,32l-3.293,3.293A1,1,0,0,0,43.293,36.707Z"/><path d="M43.293,53.707a1,1,0,0,0,1.414,0L48,50.414l3.293,3.293a1,1,0,0,0,1.414-1.414L49.414,49l3.293-3.293a1,1,0,0,0-1.414-1.414L48,47.586l-3.293-3.293a1,1,0,0,0-1.414,1.414L46.586,49l-3.293,3.293A1,1,0,0,0,43.293,53.707Z"/><path d="M27.293,53.707a1,1,0,0,0,1.414,0L32,50.414l3.293,3.293a1,1,0,0,0,1.414-1.414L33.414,49l3.293-3.293a1,1,0,0,0-1.414-1.414L32,47.586l-3.293-3.293a1,1,0,0,0-1.414,1.414L30.586,49l-3.293,3.293A1,1,0,0,0,27.293,53.707Z"/><path d="M11.293,53.707a1,1,0,0,0,1.414,0L16,50.414l3.293,3.293a1,1,0,0,0,1.414-1.414L17.414,49l3.293-3.293a1,1,0,0,0-1.414-1.414L16,47.586l-3.293-3.293a1,1,0,0,0-1.414,1.414L14.586,49l-3.293,3.293A1,1,0,0,0,11.293,53.707Z"/>
    </symbol>
    <symbol id="snake" viewBox="0 0 512 512">
        <title>snake</title><path d="m472 332v-252c0-22.054688-17.945312-40-40-40h-352c-22.054688 0-40 17.945312-40 40v352c0 22.054688 17.945312 40 40 40h352c22.054688 0 40-17.945312 40-40 0-11.046875 8.953125-20 20-20s20 8.953125 20 20c0 44.113281-35.886719 80-80 80h-352c-44.113281 0-80-35.886719-80-80v-352c0-44.113281 35.886719-80 80-80h352c44.113281 0 80 35.886719 80 80v252c0 11.046875-8.953125 20-20 20s-20-8.953125-20-20zm-110-232c0-11.046875-8.953125-20-20-20s-20 8.953125-20 20 8.953125 20 20 20 20-8.953125 20-20zm-44 190h-178c-33.085938 0-60 26.914062-60 60v22c0 33.085938 26.914062 60 60 60h232c33.085938 0 60-26.914062 60-60 0-11.046875-8.953125-20-20-20s-20 8.953125-20 20c0 11.027344-8.972656 20-20 20h-232c-11.027344 0-20-8.972656-20-20v-22c0-11.027344 8.972656-20 20-20h178c33.085938 0 60-26.914062 60-60v-26c0-33.085938-26.914062-60-60-60h-118c-11.027344 0-20-8.972656-20-20v-24c0-11.027344 8.972656-20 20-20h71c11.046875 0 20-8.953125 20-20s-8.953125-20-20-20h-71c-33.085938 0-60 26.914062-60 60v24c0 33.085938 26.914062 60 60 60h118c11.027344 0 20 8.972656 20 20v26c0 11.027344-8.972656 20-20 20zm0 0"/>
    </symbol>
    <symbol id="arrow" viewBox="0 0 451.846 451.847">
        <title>arrow</title><path d="M345.441,248.292L151.154,442.573c-12.359,12.365-32.397,12.365-44.75,0c-12.354-12.354-12.354-32.391,0-44.744 L278.318,225.92L106.409,54.017c-12.354-12.359-12.354-32.394,0-44.748c12.354-12.359,32.391-12.359,44.75,0l194.287,194.284 c6.177,6.18,9.262,14.271,9.262,22.366C354.708,234.018,351.617,242.115,345.441,248.292z"/>
    </symbol>
</svg>